<svg width="242" height="241" viewBox="0 0 242 241" fill="none" xmlns="http://www.w3.org/2000/svg">
<rect width="242" height="241" fill="#E5E5E5"/>
<ellipse cx="121" cy="120.5" rx="121" ry="120.5" fill="#FF7376"/>
<path d="M114.429 73.128C115.624 72.7013 116.861 72.744 118.141 73.256C119.25 73.6827 120.061 74.408 120.573 75.432C121 76.3707 120.872 78.1627 120.189 80.808C119.933 81.9173 119.378 84.264 118.525 87.848C116.733 94.4187 115.88 97.6613 115.965 97.576C115.965 97.7467 117.8 97.832 121.469 97.832H126.973L127.357 98.216C127.869 98.5573 127.869 99.6667 127.357 101.544C127.101 102.824 126.845 103.72 126.589 104.232C126.333 104.659 125.522 104.915 124.157 105C123.56 105 122.152 105 119.933 105H114.173L114.045 105.512C108.328 127.784 105.341 139.901 105.085 141.864C104.914 142.888 104.829 143.827 104.829 144.68C104.829 147.069 105.512 148.307 106.877 148.392C107.389 148.392 107.986 148.307 108.669 148.136C109.864 148.051 111.144 147.453 112.509 146.344C115.496 144.04 117.97 140.328 119.933 135.208C120.36 134.184 120.829 133.629 121.341 133.544C121.597 133.459 122.45 133.416 123.901 133.416C125.778 133.416 126.802 133.501 126.973 133.672C127.485 134.099 127.485 134.952 126.973 136.232C125.352 140.157 123.432 143.4 121.213 145.96C117.8 150.312 113.874 153 109.437 154.024C108.754 154.195 107.645 154.28 106.109 154.28C104.573 154.28 103.506 154.195 102.909 154.024C100.52 153.341 98.5997 152.317 97.149 150.952C95.7837 149.587 94.8023 147.923 94.205 145.96C94.0343 145.277 93.949 144.125 93.949 142.504V140.072L98.301 122.664C101.202 111.229 102.653 105.384 102.653 105.128C102.653 105.043 100.861 105 97.277 105C93.5223 105 91.4743 104.701 91.133 104.104C90.9623 103.848 91.0477 102.909 91.389 101.288C91.901 99.5813 92.1997 98.6853 92.285 98.6C92.541 98.088 93.437 97.832 94.973 97.832C95.5703 97.832 96.8503 97.832 98.813 97.832H104.573L107.005 87.848C108.626 81.2773 109.65 77.5653 110.077 76.712C110.845 75.0053 112.296 73.8107 114.429 73.128ZM158.209 69.288C161.281 68.52 163.5 69.288 164.865 71.592C165.292 72.36 165.548 73.2133 165.633 74.152C165.633 75.432 165.334 76.6693 164.737 77.864C162.774 80.5947 160.3 82.1733 157.313 82.6C156.374 82.6 155.393 82.344 154.369 81.832C153.516 81.4053 152.833 80.6373 152.321 79.528C152.065 79.1867 151.894 78.504 151.809 77.48C151.809 76.1147 152.065 74.92 152.577 73.896C153.772 71.5067 155.649 69.9707 158.209 69.288ZM147.201 96.68C147.798 96.5093 148.737 96.424 150.017 96.424C151.98 96.5093 153.686 96.936 155.137 97.704C156.246 98.3013 157.1 98.9413 157.697 99.624C158.38 100.221 159.02 101.075 159.617 102.184C160.385 103.805 160.726 105.512 160.641 107.304C160.641 108.755 160.556 109.779 160.385 110.376C160.3 110.547 158.38 115.88 154.625 126.376C151.041 135.933 149.121 141.224 148.865 142.248C148.012 145.064 147.884 146.941 148.481 147.88C148.908 148.392 149.804 148.477 151.169 148.136C154.497 147.368 157.185 143.229 159.233 135.72C159.66 134.355 160.086 133.629 160.513 133.544C160.769 133.459 161.665 133.416 163.201 133.416C165.078 133.416 166.102 133.501 166.273 133.672C166.785 134.013 166.785 134.909 166.273 136.36C165.334 139.688 163.926 142.803 162.049 145.704C158.636 150.824 154.753 153.683 150.401 154.28C148.865 154.621 147.286 154.536 145.665 154.024C143.958 153.512 142.55 152.872 141.441 152.104C139.564 150.568 138.326 148.392 137.729 145.576C137.388 143.955 137.473 142.248 137.985 140.456C138.156 139.773 140.033 134.525 143.617 124.712C146.689 116.52 148.652 111.144 149.505 108.584C150.358 105.939 150.486 104.104 149.889 103.08C149.633 102.397 148.737 102.269 147.201 102.696C144.641 103.293 142.38 105.981 140.417 110.76C139.308 114.6 138.753 116.435 138.753 116.264C138.497 116.776 138.326 117.075 138.241 117.16C138.07 117.331 137.046 117.416 135.169 117.416H132.353L131.969 117.032C131.713 116.776 131.585 116.435 131.585 116.008C131.756 114.643 132.481 112.509 133.761 109.608C134.785 107.389 135.852 105.555 136.961 104.104C138.07 102.568 139.478 101.032 141.185 99.496C143.062 98.0453 145.068 97.1067 147.201 96.68Z" fill="#7E0E0E"/>
</svg>
